<?xml version="1.0" standalone="no"?>
<!DOCTYPE svg PUBLIC "-//W3C//DTD SVG 20010904//EN"
 "http://www.w3.org/TR/2001/REC-SVG-20010904/DTD/svg10.dtd">
<svg version="1.0" xmlns="http://www.w3.org/2000/svg"
 width="100.000000pt" height="100.000000pt" viewBox="0 0 100.000000 100.000000"
 preserveAspectRatio="xMidYMid meet">
<metadata>
Created by potrace 1.14, written by Peter Selinger 2001-2017
</metadata>
<g transform="translate(0.000000,100.000000) scale(0.100000,-0.100000)"
fill="#000000" stroke="none">
<path d="M399 922 c-9 -30 -19 -41 -45 -51 -19 -7 -57 -28 -86 -47 -44 -30
-55 -33 -79 -25 -36 12 -49 2 -94 -80 l-36 -67 24 -28 c20 -26 23 -39 22 -124
0 -84 -3 -99 -23 -124 l-22 -29 38 -69 c39 -74 62 -91 100 -77 18 7 33 2 72
-25 28 -19 66 -40 85 -46 26 -9 35 -17 35 -34 0 -41 29 -56 107 -56 90 0 101
5 109 44 4 25 13 35 39 45 19 7 57 27 84 46 42 29 54 33 79 25 41 -11 54 0 97
84 l36 69 -24 26 c-21 24 -23 35 -23 121 1 83 4 99 24 124 l22 29 -36 66 c-44
82 -57 92 -93 80 -24 -8 -35 -5 -79 25 -29 19 -67 40 -86 47 -26 10 -36 21
-45 51 l-12 38 -89 0 -89 0 -12 -38z m-49 -304 c26 -64 71 -230 66 -244 -8
-22 -29 -12 -36 17 -5 21 -12 24 -50 24 -38 0 -45 -3 -50 -24 -3 -14 -11 -26
-18 -29 -25 -8 -23 31 7 130 39 127 48 148 61 148 6 0 15 -10 20 -22z m250 2
c15 -15 20 -33 20 -70 0 -64 -23 -90 -79 -90 l-40 0 -3 -47 c-2 -35 -7 -48
-18 -48 -12 0 -15 22 -18 124 -1 69 0 131 2 138 9 22 112 17 136 -7z m136 9
c3 -6 1 -16 -5 -22 -6 -6 -11 -50 -11 -107 0 -57 5 -101 11 -107 17 -17 2 -33
-31 -33 -33 0 -48 16 -31 33 6 6 11 50 11 107 0 57 -5 101 -11 107 -17 17 -2
33 31 33 16 0 32 -5 36 -11z"/>
<path d="M313 500 c-10 -40 -10 -40 18 -40 27 0 28 1 17 33 -16 49 -23 50 -35
7z"/>
<path d="M500 550 l0 -51 38 3 c37 3 37 3 37 48 0 45 0 45 -37 48 l-38 3 0
-51z"/>
</g>
</svg>
